# xmcd
#
# Track frame offsets: 
#        150
#        19117
#        42757
#        72406
#        97175
#        114654
#        134658
#        154822
#        167739
#        190204
#        204834
#
# Disc length: 2999 seconds
#
# Revision: 0
# Processed by: cddbd v1.5.2PL0 Copyright (c) Steve Scherf et al.
# Submitted via: ExactAudioCopyFreeDBPlugin 1.0
#
DISCID=9a0bb50b
DTITLE=Dr Stomp and The Stompin Blues Band - The Stompin Blues Band
DYEAR=2005
DGENRE=Blues
TTITLE0=Been Down So Long
TTITLE1=The Stompin Boogie
TTITLE2=Please Leave Me Alone
TTITLE3=Mr Looney Man
TTITLE4=Whats The Matter With The Mill?
TTITLE5=Upside Your Head
TTITLE6=Dont You Monkey With Nobodys Monkey
TTITLE7=Cant Judge A Book
TTITLE8=Got To Change
TTITLE9=Loving Baby
TTITLE10=Big Black Train
EXTD=
EXTT0=
EXTT1=
EXTT2=
EXTT3=
EXTT4=
EXTT5=
EXTT6=
EXTT7=
EXTT8=
EXTT9=
EXTT10=
PLAYORDER=
